<mxfile host="app.diagrams.net" modified="2023-03-24T11:02:05.413Z" agent="Mozilla/5.0 (Windows NT 10.0; Win64; x64) AppleWebKit/537.36 (KHTML, like Gecko) Chrome/111.0.0.0 Safari/537.36" etag="Nj5u0ieLLriUYT3xvvYc" version="21.1.0" type="device">
  <diagram name="Page-1" id="7AuaCxrHClzUt12olSgO">
    <mxGraphModel dx="794" dy="462" grid="1" gridSize="10" guides="1" tooltips="1" connect="1" arrows="1" fold="1" page="1" pageScale="1" pageWidth="850" pageHeight="1100" math="0" shadow="0">
      <root>
        <mxCell id="0" />
        <mxCell id="1" parent="0" />
        <mxCell id="eW3D7-6LyayWMv33mlOy-16" style="edgeStyle=orthogonalEdgeStyle;rounded=0;orthogonalLoop=1;jettySize=auto;html=1;exitX=0.5;exitY=1;exitDx=0;exitDy=0;entryX=0.5;entryY=0;entryDx=0;entryDy=0;" edge="1" parent="1" source="eW3D7-6LyayWMv33mlOy-1" target="eW3D7-6LyayWMv33mlOy-2">
          <mxGeometry relative="1" as="geometry" />
        </mxCell>
        <mxCell id="eW3D7-6LyayWMv33mlOy-1" value="material app" style="rounded=1;whiteSpace=wrap;html=1;" vertex="1" parent="1">
          <mxGeometry x="360" y="30" width="120" height="40" as="geometry" />
        </mxCell>
        <mxCell id="eW3D7-6LyayWMv33mlOy-17" style="edgeStyle=orthogonalEdgeStyle;rounded=0;orthogonalLoop=1;jettySize=auto;html=1;exitX=0;exitY=0.5;exitDx=0;exitDy=0;" edge="1" parent="1" source="eW3D7-6LyayWMv33mlOy-2" target="eW3D7-6LyayWMv33mlOy-3">
          <mxGeometry relative="1" as="geometry" />
        </mxCell>
        <mxCell id="eW3D7-6LyayWMv33mlOy-18" style="edgeStyle=orthogonalEdgeStyle;rounded=0;orthogonalLoop=1;jettySize=auto;html=1;exitX=1;exitY=0.5;exitDx=0;exitDy=0;entryX=0.578;entryY=0;entryDx=0;entryDy=0;entryPerimeter=0;" edge="1" parent="1" source="eW3D7-6LyayWMv33mlOy-2" target="eW3D7-6LyayWMv33mlOy-4">
          <mxGeometry relative="1" as="geometry" />
        </mxCell>
        <mxCell id="eW3D7-6LyayWMv33mlOy-30" style="edgeStyle=orthogonalEdgeStyle;rounded=0;orthogonalLoop=1;jettySize=auto;html=1;exitX=0.5;exitY=1;exitDx=0;exitDy=0;" edge="1" parent="1" source="eW3D7-6LyayWMv33mlOy-2" target="eW3D7-6LyayWMv33mlOy-8">
          <mxGeometry relative="1" as="geometry" />
        </mxCell>
        <mxCell id="eW3D7-6LyayWMv33mlOy-2" value="Sccafold" style="rounded=1;whiteSpace=wrap;html=1;" vertex="1" parent="1">
          <mxGeometry x="360" y="130" width="120" height="60" as="geometry" />
        </mxCell>
        <mxCell id="eW3D7-6LyayWMv33mlOy-3" value="Background Color" style="rounded=1;whiteSpace=wrap;html=1;" vertex="1" parent="1">
          <mxGeometry x="130" y="260" width="120" height="60" as="geometry" />
        </mxCell>
        <mxCell id="eW3D7-6LyayWMv33mlOy-23" style="edgeStyle=orthogonalEdgeStyle;rounded=0;orthogonalLoop=1;jettySize=auto;html=1;exitX=0;exitY=0.5;exitDx=0;exitDy=0;entryX=0.5;entryY=0;entryDx=0;entryDy=0;" edge="1" parent="1" source="eW3D7-6LyayWMv33mlOy-4" target="eW3D7-6LyayWMv33mlOy-6">
          <mxGeometry relative="1" as="geometry" />
        </mxCell>
        <mxCell id="eW3D7-6LyayWMv33mlOy-25" style="edgeStyle=orthogonalEdgeStyle;rounded=0;orthogonalLoop=1;jettySize=auto;html=1;exitX=1;exitY=0.5;exitDx=0;exitDy=0;entryX=0.622;entryY=-0.011;entryDx=0;entryDy=0;entryPerimeter=0;" edge="1" parent="1" source="eW3D7-6LyayWMv33mlOy-4" target="eW3D7-6LyayWMv33mlOy-7">
          <mxGeometry relative="1" as="geometry" />
        </mxCell>
        <mxCell id="eW3D7-6LyayWMv33mlOy-4" value="AppBar" style="rounded=1;whiteSpace=wrap;html=1;" vertex="1" parent="1">
          <mxGeometry x="620" y="260" width="120" height="60" as="geometry" />
        </mxCell>
        <mxCell id="eW3D7-6LyayWMv33mlOy-6" value="Color" style="rounded=1;whiteSpace=wrap;html=1;" vertex="1" parent="1">
          <mxGeometry x="510" y="370" width="120" height="60" as="geometry" />
        </mxCell>
        <mxCell id="eW3D7-6LyayWMv33mlOy-7" value="Text" style="rounded=1;whiteSpace=wrap;html=1;" vertex="1" parent="1">
          <mxGeometry x="690" y="370" width="120" height="60" as="geometry" />
        </mxCell>
        <mxCell id="eW3D7-6LyayWMv33mlOy-31" style="edgeStyle=orthogonalEdgeStyle;rounded=0;orthogonalLoop=1;jettySize=auto;html=1;exitX=0.5;exitY=1;exitDx=0;exitDy=0;entryX=0.5;entryY=0;entryDx=0;entryDy=0;" edge="1" parent="1" source="eW3D7-6LyayWMv33mlOy-8" target="eW3D7-6LyayWMv33mlOy-9">
          <mxGeometry relative="1" as="geometry" />
        </mxCell>
        <mxCell id="eW3D7-6LyayWMv33mlOy-8" value="Center" style="rounded=1;whiteSpace=wrap;html=1;" vertex="1" parent="1">
          <mxGeometry x="365" y="260" width="120" height="60" as="geometry" />
        </mxCell>
        <mxCell id="eW3D7-6LyayWMv33mlOy-21" style="edgeStyle=orthogonalEdgeStyle;rounded=0;orthogonalLoop=1;jettySize=auto;html=1;exitX=0.5;exitY=1;exitDx=0;exitDy=0;entryX=0.5;entryY=0;entryDx=0;entryDy=0;" edge="1" parent="1" source="eW3D7-6LyayWMv33mlOy-9" target="eW3D7-6LyayWMv33mlOy-10">
          <mxGeometry relative="1" as="geometry" />
        </mxCell>
        <mxCell id="eW3D7-6LyayWMv33mlOy-9" value="Image" style="rounded=1;whiteSpace=wrap;html=1;" vertex="1" parent="1">
          <mxGeometry x="360" y="380" width="120" height="60" as="geometry" />
        </mxCell>
        <mxCell id="eW3D7-6LyayWMv33mlOy-10" value="Network Image" style="rounded=1;whiteSpace=wrap;html=1;" vertex="1" parent="1">
          <mxGeometry x="360" y="540" width="120" height="60" as="geometry" />
        </mxCell>
      </root>
    </mxGraphModel>
  </diagram>
</mxfile>
